<svg viewBox="0 0 734 734" fill="none" xmlns="http://www.w3.org/2000/svg">
<path d="M500.25 118.85H233.61C170.23 118.85 118.85 170.23 118.85 233.61V500.25C118.85 563.63 170.23 615.01 233.61 615.01H500.25C563.63 615.01 615.01 563.63 615.01 500.25V233.61C615.01 170.23 563.63 118.85 500.25 118.85Z" fill="#411F99"/>
<path d="M556.09 442.37C556.104 434.364 554.079 426.487 550.205 419.481C546.331 412.475 540.736 406.572 533.949 402.327C527.161 398.083 519.404 395.637 511.409 395.221C503.414 394.805 495.445 396.432 488.254 399.95C481.062 403.467 474.885 408.758 470.305 415.324C465.725 421.89 462.893 429.515 462.076 437.478C461.259 445.442 462.484 453.483 465.636 460.842C468.788 468.201 473.762 474.636 480.09 479.54H537.91C543.583 475.146 548.174 469.512 551.333 463.069C554.491 456.626 556.132 449.545 556.13 442.37" fill="#91E6F0"/>
<path d="M351.4 226.42C341.4 223.67 323.4 220.33 302.33 220.33C236 220.33 208.76 241.45 208.76 286.94V321.94H202.64C190.15 321.94 184.06 329.31 184.06 340.52V350.78H208.76V454.55H203.39C194.73 454.55 187.04 460.64 187.04 473.13V479.54H290.39C300.32 479.54 308.02 474.41 308.02 460.64V454.55H272.52V350.74H289.67C304.73 350.74 310.82 340.48 310.82 330.55V321.9H272.52V285.73C272.52 249.07 275.91 238.67 284.46 235.73H285.93V236.73C285.93 255.96 300.21 271.65 319.12 271.65C338.66 271.65 352.68 255.96 352.68 236.73C352.672 233.274 352.242 229.832 351.4 226.48V226.42ZM475.59 345C475.27 329.62 463.27 316.48 446.92 316.8C431.92 316.8 420.51 326.31 407.21 343.93H405.93V316.77H377.1L324.47 330.55V334.07C324.47 349.13 334.8 360.35 342.17 364.51V454.51H338.62C329.97 454.51 322.27 460.6 322.27 473.09V479.5H428.39C438.32 479.5 445.7 474.37 445.7 460.6V454.51H405.93V360.31L425.28 351.64L459.21 374C469.44 367.63 475.91 356.23 475.59 345Z" fill="#91E6F0"/>
</svg>
